# Blender v2.90.1 OBJ File: 'Cegły morskie.blend'
# www.blender.org
mtllib Cegły morskie.mtl
o Cube
v 1.000000 1.000000 -1.000000
v 1.000000 -1.000000 -1.000000
v 1.000000 1.000000 1.000000
v 1.000000 -1.000000 1.000000
v -1.000000 1.000000 -1.000000
v -1.000000 -1.000000 -1.000000
v -1.000000 1.000000 1.000000
v -1.000000 -1.000000 1.000000
vt 1.000473 -0.000205
vt 2.001419 -0.000205
vt 2.001419 1.000741
vt 1.000473 1.000741
vt 2.001355 1.001087
vt 2.001355 0.000141
vt 3.002301 0.000141
vt 3.002301 1.001087
vt -1.001483 1.001087
vt -1.001483 0.000141
vt -0.000537 0.000141
vt -0.000537 1.001087
vt -1.001419 -0.000205
vt -0.000473 -0.000205
vt -0.000473 1.000741
vt -1.001419 1.000741
vt 1.000409 1.001087
vt 1.000409 0.000141
vn 0.0000 1.0000 0.0000
vn 0.0000 0.0000 1.0000
vn -1.0000 0.0000 0.0000
vn 0.0000 -1.0000 0.0000
vn 1.0000 0.0000 0.0000
vn 0.0000 0.0000 -1.0000
usemtl Material
s off
f 1/1/1 5/2/1 7/3/1 3/4/1
f 4/5/2 3/6/2 7/7/2 8/8/2
f 8/9/3 7/10/3 5/11/3 6/12/3
f 6/13/4 2/14/4 4/15/4 8/16/4
f 2/17/5 1/18/5 3/6/5 4/5/5
f 6/12/6 5/11/6 1/18/6 2/17/6
