# Blender v2.90.1 OBJ File: 'Płotek.blend'
# www.blender.org
mtllib Płotek.mtl
o Cube
v 0.118506 4.835587 -0.647490
v 0.118506 -4.835587 -0.647490
v 0.118506 4.835587 0.647490
v 0.118506 -4.835587 0.647490
v -0.118506 4.835587 -0.647490
v -0.118506 -4.835587 -0.647490
v -0.118506 4.835587 0.647490
v -0.118506 -4.835587 0.647490
v 0.118506 5.595020 0.000000
v -0.118506 5.595020 0.000000
v 0.118506 4.835587 -3.237452
v 0.118506 -4.835587 -3.237452
v 0.118506 4.835587 -1.942472
v 0.118506 -4.835587 -1.942472
v -0.118506 4.835587 -3.237452
v -0.118506 -4.835587 -3.237452
v -0.118506 4.835587 -1.942472
v -0.118506 -4.835587 -1.942472
v 0.118506 5.595020 -2.589962
v -0.118506 5.595020 -2.589962
v 0.118506 4.835587 -5.827414
v 0.118506 -4.835587 -5.827414
v 0.118506 4.835587 -4.532434
v 0.118506 -4.835587 -4.532434
v -0.118506 4.835587 -5.827414
v -0.118506 -4.835587 -5.827414
v -0.118506 4.835587 -4.532434
v -0.118506 -4.835587 -4.532434
v 0.118506 5.595020 -5.179924
v -0.118506 5.595020 -5.179924
v 0.118506 4.835587 -8.417377
v 0.118506 -4.835587 -8.417377
v 0.118506 4.835587 -7.122396
v 0.118506 -4.835587 -7.122396
v -0.118506 4.835587 -8.417377
v -0.118506 -4.835587 -8.417377
v -0.118506 4.835587 -7.122396
v -0.118506 -4.835587 -7.122396
v 0.118506 5.595020 -7.769886
v -0.118506 5.595020 -7.769886
vt 0.625000 0.625000
vt 0.875000 0.625000
vt 0.875000 0.750000
vt 0.625000 0.750000
vt 0.375000 0.750000
vt 0.625000 1.000000
vt 0.375000 1.000000
vt 0.375000 0.000000
vt 0.625000 0.000000
vt 0.625000 0.125000
vt 0.625000 0.250000
vt 0.375000 0.250000
vt 0.125000 0.500000
vt 0.375000 0.500000
vt 0.125000 0.750000
vt 0.625000 0.500000
vt 0.875000 0.500000
vt 0.625000 0.625000
vt 0.875000 0.625000
vt 0.875000 0.750000
vt 0.625000 0.750000
vt 0.375000 0.750000
vt 0.625000 1.000000
vt 0.375000 1.000000
vt 0.375000 0.000000
vt 0.625000 0.000000
vt 0.625000 0.125000
vt 0.625000 0.250000
vt 0.375000 0.250000
vt 0.125000 0.500000
vt 0.375000 0.500000
vt 0.125000 0.750000
vt 0.625000 0.500000
vt 0.875000 0.500000
vt 0.625000 0.625000
vt 0.875000 0.625000
vt 0.875000 0.750000
vt 0.625000 0.750000
vt 0.375000 0.750000
vt 0.625000 1.000000
vt 0.375000 1.000000
vt 0.375000 0.000000
vt 0.625000 0.000000
vt 0.625000 0.125000
vt 0.625000 0.250000
vt 0.375000 0.250000
vt 0.125000 0.500000
vt 0.375000 0.500000
vt 0.125000 0.750000
vt 0.625000 0.500000
vt 0.875000 0.500000
vt 0.625000 0.625000
vt 0.875000 0.625000
vt 0.875000 0.750000
vt 0.625000 0.750000
vt 0.375000 0.750000
vt 0.625000 1.000000
vt 0.375000 1.000000
vt 0.375000 0.000000
vt 0.625000 0.000000
vt 0.625000 0.125000
vt 0.625000 0.250000
vt 0.375000 0.250000
vt 0.125000 0.500000
vt 0.375000 0.500000
vt 0.125000 0.750000
vt 0.625000 0.500000
vt 0.875000 0.500000
vn 0.0000 0.6488 0.7610
vn 0.0000 0.0000 1.0000
vn -1.0000 0.0000 0.0000
vn 0.0000 -1.0000 0.0000
vn 1.0000 0.0000 0.0000
vn 0.0000 0.0000 -1.0000
vn 0.0000 0.6488 -0.7610
usemtl Material
s off
f 9/1/1 10/2/1 7/3/1 3/4/1
f 4/5/2 3/4/2 7/6/2 8/7/2
f 8/8/3 7/9/3 10/10/3 5/11/3 6/12/3
f 6/13/4 2/14/4 4/5/4 8/15/4
f 2/14/5 1/16/5 9/1/5 3/4/5 4/5/5
f 6/12/6 5/11/6 1/16/6 2/14/6
f 1/16/7 5/17/7 10/2/7 9/1/7
f 19/18/1 20/19/1 17/20/1 13/21/1
f 14/22/2 13/21/2 17/23/2 18/24/2
f 18/25/3 17/26/3 20/27/3 15/28/3 16/29/3
f 16/30/4 12/31/4 14/22/4 18/32/4
f 12/31/5 11/33/5 19/18/5 13/21/5 14/22/5
f 16/29/6 15/28/6 11/33/6 12/31/6
f 11/33/7 15/34/7 20/19/7 19/18/7
f 29/35/1 30/36/1 27/37/1 23/38/1
f 24/39/2 23/38/2 27/40/2 28/41/2
f 28/42/3 27/43/3 30/44/3 25/45/3 26/46/3
f 26/47/4 22/48/4 24/39/4 28/49/4
f 22/48/5 21/50/5 29/35/5 23/38/5 24/39/5
f 26/46/6 25/45/6 21/50/6 22/48/6
f 21/50/7 25/51/7 30/36/7 29/35/7
f 39/52/1 40/53/1 37/54/1 33/55/1
f 34/56/2 33/55/2 37/57/2 38/58/2
f 38/59/3 37/60/3 40/61/3 35/62/3 36/63/3
f 36/64/4 32/65/4 34/56/4 38/66/4
f 32/65/5 31/67/5 39/52/5 33/55/5 34/56/5
f 36/63/6 35/62/6 31/67/6 32/65/6
f 31/67/7 35/68/7 40/53/7 39/52/7
o Cube.001
v -0.058331 2.919235 0.539486
v -0.058331 4.004131 0.539486
v -0.058331 2.919235 -8.232790
v -0.058331 4.004131 -8.232790
v 0.058331 2.919235 0.539486
v 0.058331 4.004131 0.539486
v 0.058331 2.919235 -8.232790
v 0.058331 4.004131 -8.232790
vt 0.375000 0.000000
vt 0.625000 0.000000
vt 0.625000 0.250000
vt 0.375000 0.250000
vt 0.625000 0.500000
vt 0.375000 0.500000
vt 0.625000 0.750000
vt 0.375000 0.750000
vt 0.625000 1.000000
vt 0.375000 1.000000
vt 0.125000 0.500000
vt 0.125000 0.750000
vt 0.875000 0.500000
vt 0.875000 0.750000
vn -1.0000 0.0000 0.0000
vn 0.0000 0.0000 -1.0000
vn 1.0000 0.0000 0.0000
vn 0.0000 0.0000 1.0000
vn 0.0000 -1.0000 0.0000
vn 0.0000 1.0000 0.0000
usemtl Material
s off
f 41/69/8 42/70/8 44/71/8 43/72/8
f 43/72/9 44/71/9 48/73/9 47/74/9
f 47/74/10 48/73/10 46/75/10 45/76/10
f 45/76/11 46/75/11 42/77/11 41/78/11
f 43/79/12 47/74/12 45/76/12 41/80/12
f 48/73/13 44/81/13 42/82/13 46/75/13
o Cube.002
v -0.058331 -3.853799 0.539486
v -0.058331 -2.768903 0.539486
v -0.058331 -3.853799 -8.232790
v -0.058331 -2.768903 -8.232790
v 0.058331 -3.853799 0.539486
v 0.058331 -2.768903 0.539486
v 0.058331 -3.853799 -8.232790
v 0.058331 -2.768903 -8.232790
vt 0.375000 0.000000
vt 0.625000 0.000000
vt 0.625000 0.250000
vt 0.375000 0.250000
vt 0.625000 0.500000
vt 0.375000 0.500000
vt 0.625000 0.750000
vt 0.375000 0.750000
vt 0.625000 1.000000
vt 0.375000 1.000000
vt 0.125000 0.500000
vt 0.125000 0.750000
vt 0.875000 0.500000
vt 0.875000 0.750000
vn -1.0000 0.0000 0.0000
vn 0.0000 0.0000 -1.0000
vn 1.0000 0.0000 0.0000
vn 0.0000 0.0000 1.0000
vn 0.0000 -1.0000 0.0000
vn 0.0000 1.0000 0.0000
usemtl Material
s off
f 49/83/14 50/84/14 52/85/14 51/86/14
f 51/86/15 52/85/15 56/87/15 55/88/15
f 55/88/16 56/87/16 54/89/16 53/90/16
f 53/90/17 54/89/17 50/91/17 49/92/17
f 51/93/18 55/88/18 53/90/18 49/94/18
f 56/87/19 52/95/19 50/96/19 54/89/19
